# xmcd
#
# Track frame offsets:
#	150
#	11890
#	27981
#	48341
#	67324
#	86798
#	106892
#	127414
#	143973
#	164381
#	185564
#	203154
#
# Disc length: 2862 seconds
#
# Revision: 0
# Processed by: cddbd v1.5.2PL0 Copyright (c) Steve Scherf et al.
# Submitted via: dBpowerAMP V4.0
#
DISCID=b80b2c0c
DTITLE=Michael Dertous - Millénaire
DYEAR=2015
DGENRE=Blues
TTITLE0=Millénaire
TTITLE1=Si tu pars
TTITLE2=Baby Blues
TTITLE3=Capharnaüm
TTITLE4=Les petites lignes
TTITLE5=Les agents dormants
TTITLE6=Les objects perdus
TTITLE7=Une chanson verte
TTITLE8=Le costard
TTITLE9=Cheyenne
TTITLE10=Robinson
TTITLE11=Te dire je t'aime
EXTD=
EXTT0=
EXTT1=
EXTT2=
EXTT3=
EXTT4=
EXTT5=
EXTT6=
EXTT7=
EXTT8=
EXTT9=
EXTT10=
EXTT11=
PLAYORDER=
